<svg width="88" height="49" viewBox="0 0 88 49" fill="none" xmlns="http://www.w3.org/2000/svg">
<path d="M43.9629 0C23.5696 0 6.34471 16.2719 0.819751 22.1115C-0.27325 23.2668 -0.27325 25.0665 0.819748 26.2217C6.34471 32.0613 23.5696 48.3333 43.9629 48.3333C64.3623 48.3333 81.5914 32.0515 87.111 26.2165C88.2011 25.064 88.2011 23.2692 87.111 22.1168C81.5914 16.2817 64.3623 0 43.9629 0ZM43.9629 45.5587C25.3397 45.5587 9.7015 30.2287 5.34023 25.5235C4.62809 24.7552 4.62809 23.5781 5.34023 22.8098C9.7015 18.1045 25.3397 2.77466 43.9629 2.77466C62.586 2.77466 78.2242 18.1045 82.5855 22.8098C83.2976 23.5781 83.2976 24.7552 82.5855 25.5235C78.2242 30.2287 62.586 45.5587 43.9629 45.5587Z" fill="black"/>
<path d="M56.5449 16.1216C55.8238 18.084 53.9439 19.4866 51.7314 19.4866C48.8967 19.4866 46.5987 17.1886 46.5987 14.3539C46.5987 12.5657 47.5142 10.9927 48.901 10.0738C47.3532 9.53128 45.6962 9.22119 43.963 9.22119C35.7089 9.22119 29.0176 15.9125 29.0176 24.1666C29.0176 32.4207 35.7089 39.112 43.963 39.112C52.2172 39.112 58.9084 32.4207 58.9084 24.1666C58.9084 21.2015 58.0341 18.4456 56.5449 16.1216Z" fill="black"/>
</svg>
